<?xml version="1.0" encoding="UTF-8"?><svg xmlns="http://www.w3.org/2000/svg" xmlns:xlink="http://www.w3.org/1999/xlink" contentScriptType="text/ecmascript" width="120pt" zoomAndPan="magnify" contentStyleType="text/css" viewBox="0 0 120 30.000001" height="30.000001pt" preserveAspectRatio="xMidYMid meet" version="1.2"><defs><g/><clipPath xml:id="clip1" id="clip1"><path d="M 5 0 L 30.625 0 L 30.625 29 L 5 29 Z M 5 0 "/></clipPath></defs><g xml:id="surface1" id="surface1"><g clip-rule="nonzero" clip-path="url(#clip1)"><path style=" stroke:none;fill-rule:nonzero;fill:rgb(0%,0%,0%);fill-opacity:1;" d="M 20.3125 28.988281 C 12.308594 28.988281 5.796875 22.5625 5.796875 14.664062 C 5.796875 6.769531 12.308594 0.34375 20.3125 0.34375 C 24.203125 0.34375 27.859375 1.84375 30.605469 4.566406 C 30.839844 4.796875 30.839844 5.175781 30.601562 5.410156 L 21.21875 14.664062 L 30.601562 23.921875 C 30.839844 24.15625 30.839844 24.53125 30.605469 24.765625 C 27.859375 27.488281 24.203125 28.988281 20.3125 28.988281 Z M 20.3125 1.539062 C 12.976562 1.539062 7.007812 7.429688 7.007812 14.664062 C 7.007812 21.902344 12.976562 27.792969 20.3125 27.792969 C 23.679688 27.792969 26.851562 26.570312 29.3125 24.335938 L 19.9375 15.085938 C 19.703125 14.859375 19.703125 14.476562 19.9375 14.242188 L 29.3125 4.996094 C 26.851562 2.761719 23.679688 1.539062 20.3125 1.539062 Z M 20.3125 1.539062 "/></g><path style=" stroke:none;fill-rule:nonzero;fill:rgb(0%,0%,0%);fill-opacity:1;" d="M 17.289062 11.085938 C 15.621094 11.085938 14.265625 9.75 14.265625 8.101562 C 14.265625 6.457031 15.621094 5.117188 17.289062 5.117188 C 18.957031 5.117188 20.3125 6.457031 20.3125 8.101562 C 20.3125 9.75 18.957031 11.085938 17.289062 11.085938 Z M 17.289062 6.3125 C 16.289062 6.3125 15.476562 7.117188 15.476562 8.101562 C 15.476562 9.089844 16.289062 9.894531 17.289062 9.894531 C 18.289062 9.894531 19.105469 9.089844 19.105469 8.101562 C 19.105469 7.117188 18.289062 6.3125 17.289062 6.3125 Z M 17.289062 6.3125 "/><path style=" stroke:none;fill-rule:nonzero;fill:rgb(0%,0%,0%);fill-opacity:1;" d="M 28.703125 9.820312 C 28.5625 9.820312 28.425781 9.84375 28.296875 9.898438 C 28.164062 9.953125 28.046875 10.03125 27.949219 10.132812 C 27.847656 10.230469 27.769531 10.347656 27.714844 10.480469 C 27.660156 10.609375 27.632812 10.746094 27.632812 10.890625 C 27.632812 11.03125 27.660156 11.167969 27.714844 11.300781 C 27.769531 11.429688 27.847656 11.546875 27.949219 11.644531 C 28.046875 11.746094 28.164062 11.824219 28.296875 11.878906 C 28.425781 11.933594 28.5625 11.960938 28.703125 11.960938 C 28.847656 11.960938 28.984375 11.933594 29.113281 11.878906 C 29.246094 11.824219 29.363281 11.746094 29.460938 11.644531 C 29.5625 11.546875 29.640625 11.429688 29.695312 11.300781 C 29.75 11.167969 29.777344 11.03125 29.777344 10.890625 C 29.777344 10.746094 29.75 10.609375 29.695312 10.480469 C 29.640625 10.347656 29.5625 10.230469 29.460938 10.132812 C 29.363281 10.03125 29.246094 9.953125 29.113281 9.898438 C 28.984375 9.84375 28.847656 9.820312 28.703125 9.820312 Z M 28.703125 9.820312 "/><g style="fill:rgb(0%,0%,0%);fill-opacity:1;"><g transform="translate(36.236333, 19.873648)"><path style="stroke:none;" d="M 2.804688 0 L 2.804688 -7.78125 C 3.355469 -7.933594 3.925781 -8 4.390625 -8 C 5.460938 -8 6.097656 -7.617188 6.097656 -6.496094 L 6.097656 0 L 8 0 L 8 -6.613281 C 8 -8.816406 6.648438 -9.6875 4.492188 -9.6875 C 3.605469 -9.6875 2.1875 -9.503906 0.933594 -9.203125 L 0.933594 0 Z M 2.804688 0 "/></g></g><g style="fill:rgb(0%,0%,0%);fill-opacity:1;"><g transform="translate(45.017144, 19.873648)"><path style="stroke:none;" d="M 6.394531 0 L 6.394531 -1.753906 L 5.359375 -1.753906 C 4.191406 -1.753906 3.707031 -2.222656 3.707031 -3.324219 L 3.707031 -7.648438 L 6.378906 -7.648438 L 6.378906 -9.371094 L 3.707031 -9.371094 L 3.707031 -12.410156 L 1.804688 -12.410156 L 1.804688 -9.371094 L 0.382812 -9.371094 L 0.382812 -7.648438 L 1.804688 -7.648438 L 1.804688 -2.921875 C 1.804688 -0.867188 2.738281 0 4.757812 0 Z M 6.394531 0 "/></g></g><g style="fill:rgb(0%,0%,0%);fill-opacity:1;"><g transform="translate(51.995046, 19.873648)"><path style="stroke:none;" d="M 4.507812 -9.6875 C 4.042969 -9.6875 3.457031 -9.636719 2.839844 -9.554688 L 2.839844 -13.542969 L 0.933594 -13.542969 L 0.933594 0 L 2.839844 0 L 2.839844 -7.800781 C 3.375 -7.933594 3.957031 -8 4.390625 -8 C 5.460938 -8 6.097656 -7.617188 6.097656 -6.496094 L 6.097656 0 L 8 0 L 8 -6.613281 C 8 -8.816406 6.648438 -9.6875 4.507812 -9.6875 Z M 4.507812 -9.6875 "/></g></g><g style="fill:rgb(0%,0%,0%);fill-opacity:1;"><g transform="translate(60.809238, 19.873648)"><path style="stroke:none;" d="M 8.21875 -5.511719 C 8.21875 -8.21875 6.878906 -9.703125 4.476562 -9.703125 C 2.085938 -9.703125 0.683594 -8.199219 0.683594 -5.660156 L 0.683594 -3.976562 C 0.683594 -1.402344 2.15625 0.199219 4.808594 0.199219 C 6.011719 0.199219 7.113281 -0.167969 7.917969 -0.652344 L 7.363281 -2.1875 C 6.78125 -1.785156 5.863281 -1.488281 4.976562 -1.488281 C 3.472656 -1.488281 2.605469 -2.4375 2.605469 -3.992188 L 2.605469 -4.207031 L 8.21875 -4.207031 Z M 4.492188 -8.082031 C 5.828125 -8.082031 6.394531 -7.113281 6.394531 -5.894531 L 6.394531 -5.628906 L 2.605469 -5.628906 L 2.605469 -5.777344 C 2.605469 -7.046875 3.207031 -8.082031 4.492188 -8.082031 Z M 4.492188 -8.082031 "/></g></g><g style="fill:rgb(0%,0%,0%);fill-opacity:1;"><g transform="translate(69.723591, 19.873648)"><path style="stroke:none;" d="M 4.644531 0.199219 C 5.542969 0.199219 6.496094 -0.015625 7.265625 -0.402344 L 6.765625 -1.9375 C 6.164062 -1.621094 5.511719 -1.46875 4.84375 -1.46875 C 3.324219 -1.46875 2.605469 -2.472656 2.605469 -3.875 L 2.605469 -5.613281 C 2.605469 -7.015625 3.289062 -8.03125 4.84375 -8.03125 C 5.542969 -8.03125 6.113281 -7.867188 6.730469 -7.53125 L 7.25 -9.070312 C 6.464844 -9.46875 5.542969 -9.6875 4.644531 -9.6875 C 2.1875 -9.6875 0.683594 -8.183594 0.683594 -5.695312 L 0.683594 -3.808594 C 0.683594 -1.269531 2.238281 0.199219 4.644531 0.199219 Z M 4.644531 0.199219 "/></g></g><g style="fill:rgb(0%,0%,0%);fill-opacity:1;"><g transform="translate(77.385934, 19.873648)"><path style="stroke:none;" d="M 4.207031 -9.667969 C 3.273438 -9.667969 2.105469 -9.4375 1.503906 -9.152344 L 1.070312 -7.382812 C 1.921875 -7.75 3.007812 -7.984375 3.792969 -7.984375 C 5.226562 -7.984375 5.863281 -7.449219 5.863281 -6.230469 L 5.863281 -5.613281 C 5.160156 -5.746094 4.625 -5.777344 4.160156 -5.777344 C 1.886719 -5.777344 0.566406 -4.84375 0.566406 -2.890625 L 0.566406 -2.753906 C 0.566406 -0.71875 1.9375 0.21875 4.308594 0.21875 C 5.359375 0.21875 6.648438 0.015625 7.75 -0.234375 L 7.75 -6.363281 C 7.75 -8.734375 6.464844 -9.667969 4.207031 -9.667969 Z M 2.453125 -2.90625 C 2.453125 -3.925781 3.15625 -4.375 4.441406 -4.375 C 4.808594 -4.375 5.359375 -4.324219 5.863281 -4.207031 L 5.863281 -1.46875 C 5.359375 -1.386719 4.84375 -1.351562 4.425781 -1.351562 C 3.140625 -1.351562 2.453125 -1.835938 2.453125 -2.871094 Z M 2.453125 -2.90625 "/></g></g><g style="fill:rgb(0%,0%,0%);fill-opacity:1;"><g transform="translate(85.933032, 19.873648)"><path style="stroke:none;" d="M 3.742188 0.199219 C 6.0625 0.199219 7.332031 -0.734375 7.332031 -2.640625 C 7.332031 -4.191406 6.480469 -4.910156 4.742188 -5.511719 L 4.140625 -5.726562 C 3.105469 -6.078125 2.707031 -6.414062 2.707031 -7.046875 C 2.707031 -7.75 3.308594 -8.050781 4.257812 -8.050781 C 4.976562 -8.050781 5.8125 -7.898438 6.5625 -7.53125 L 6.949219 -9.050781 C 6.144531 -9.453125 5.128906 -9.667969 4.089844 -9.667969 C 2.070312 -9.667969 0.835938 -8.734375 0.835938 -7.015625 C 0.835938 -5.542969 1.519531 -4.726562 3.140625 -4.175781 L 3.875 -3.925781 C 5.058594 -3.523438 5.476562 -3.222656 5.476562 -2.539062 C 5.476562 -1.671875 4.710938 -1.417969 3.558594 -1.417969 C 2.773438 -1.417969 1.835938 -1.585938 1.019531 -1.953125 L 0.652344 -0.417969 C 1.621094 0 2.605469 0.199219 3.742188 0.199219 Z M 3.742188 0.199219 "/></g></g><g style="fill:rgb(0%,0%,0%);fill-opacity:1;"><g transform="translate(93.89586, 19.873648)"><path style="stroke:none;" d="M 4.441406 0.199219 C 5.328125 0.199219 6.746094 0.015625 8 -0.285156 L 8 -9.351562 L 6.128906 -9.351562 L 6.128906 -1.652344 C 5.578125 -1.519531 5.011719 -1.4375 4.542969 -1.4375 C 3.472656 -1.4375 2.839844 -1.835938 2.839844 -2.957031 L 2.839844 -9.371094 L 0.933594 -9.371094 L 0.933594 -2.871094 C 0.933594 -0.667969 2.289062 0.199219 4.441406 0.199219 Z M 4.441406 0.199219 "/></g></g><g style="fill:rgb(0%,0%,0%);fill-opacity:1;"><g transform="translate(102.826914, 19.873648)"><path style="stroke:none;" d="M 4.207031 -9.667969 C 3.273438 -9.667969 2.105469 -9.4375 1.503906 -9.152344 L 1.070312 -7.382812 C 1.921875 -7.75 3.007812 -7.984375 3.792969 -7.984375 C 5.226562 -7.984375 5.863281 -7.449219 5.863281 -6.230469 L 5.863281 -5.613281 C 5.160156 -5.746094 4.625 -5.777344 4.160156 -5.777344 C 1.886719 -5.777344 0.566406 -4.84375 0.566406 -2.890625 L 0.566406 -2.753906 C 0.566406 -0.71875 1.9375 0.21875 4.308594 0.21875 C 5.359375 0.21875 6.648438 0.015625 7.75 -0.234375 L 7.75 -6.363281 C 7.75 -8.734375 6.464844 -9.667969 4.207031 -9.667969 Z M 2.453125 -2.90625 C 2.453125 -3.925781 3.15625 -4.375 4.441406 -4.375 C 4.808594 -4.375 5.359375 -4.324219 5.863281 -4.207031 L 5.863281 -1.46875 C 5.359375 -1.386719 4.84375 -1.351562 4.425781 -1.351562 C 3.140625 -1.351562 2.453125 -1.835938 2.453125 -2.871094 Z M 2.453125 -2.90625 "/></g></g><g style="fill:rgb(0%,0%,0%);fill-opacity:1;"><g transform="translate(111.374012, 19.873648)"><path style="stroke:none;" d="M 2.839844 0 L 2.839844 -13.542969 L 0.933594 -13.542969 L 0.933594 0 Z M 2.839844 0 "/></g></g><g style="fill:rgb(0%,0%,0%);fill-opacity:1;"><g transform="translate(32.071443, 20.305509)"><path style="stroke:none;" d="M 2.757812 -0.667969 L 0.554688 -9.769531 L -1.296875 -9.320312 L 0.910156 -0.21875 Z M 2.757812 -0.667969 "/></g></g></g></svg>